<svg width="192" height="36" viewBox="0 0 192 36" fill="none" xmlns="http://www.w3.org/2000/svg">
<path d="M56.1375 30.399C58.6235 30.399 60.642 29.772 62.193 28.518C63.744 27.264 64.5195 25.57 64.5195 23.436C64.5195 22.776 64.437 22.1655 64.272 21.6045C64.107 21.0435 63.909 20.565 63.678 20.169C63.447 19.773 63.1115 19.388 62.6715 19.014C62.2315 18.64 61.841 18.343 61.5 18.123C61.159 17.903 60.675 17.6665 60.048 17.4135C59.421 17.1605 58.926 16.9735 58.563 16.8525C58.2 16.7315 57.6665 16.561 56.9625 16.341C55.2465 15.813 54.086 15.3235 53.481 14.8725C52.876 14.4215 52.5735 13.833 52.5735 13.107C52.5735 12.425 52.843 11.8695 53.382 11.4405C53.921 11.0115 54.6635 10.797 55.6095 10.797C57.3448 10.797 58.6759 11.5248 59.6026 12.9804C59.941 13.5037 60.5819 13.4459 60.9897 13.2136C61.7943 12.7488 62.4291 12.3821 62.894 12.1136C63.4204 11.8069 63.6984 11.2501 63.3381 10.6084C62.6055 9.42672 61.6738 8.47209 60.543 7.7445C59.124 6.8315 57.4795 6.375 55.6095 6.375C53.5195 6.375 51.732 6.9965 50.247 8.2395C48.762 9.4825 48.0195 11.149 48.0195 13.239C48.0195 14.295 48.2065 15.219 48.5805 16.011C48.9545 16.803 49.499 17.4575 50.214 17.9745C50.929 18.4915 51.644 18.904 52.359 19.212C53.074 19.52 53.9485 19.828 54.9825 20.136C56.8525 20.664 58.1505 21.1535 58.8765 21.6045C59.6025 22.0555 59.9655 22.688 59.9655 23.502C59.9655 24.206 59.6685 24.789 59.0745 25.251C58.4805 25.713 57.5455 25.944 56.2695 25.944C53.9623 25.944 52.3189 25.0451 51.3391 23.2473C51.0643 22.8053 50.4141 22.7396 49.9201 23.019C49.4386 23.3005 48.7747 23.6888 47.9283 24.1837C47.343 24.5309 47.2104 25.0859 47.4622 25.6255C48.1216 26.9503 49.0883 28.03 50.3625 28.8645C51.9245 29.8875 53.8495 30.399 56.1375 30.399Z" fill="#373B43"/>
<path d="M70.4235 28.812V21.027C70.4235 19.663 70.7535 18.64 71.4135 17.958C72.0735 17.276 72.9535 16.935 74.0535 16.935C75.0435 16.935 75.8355 17.2265 76.4295 17.8095C77.0235 18.3925 77.3205 19.234 77.3205 20.334V28.812C77.3205 29.4878 77.7957 29.937 78.4455 29.937H80.4525C81.1367 29.937 81.5775 29.4712 81.5775 28.812V19.806C81.5775 17.672 80.989 16 79.812 14.79C78.635 13.58 77.1445 12.975 75.3405 12.975C73.0965 12.975 71.4575 13.745 70.4235 15.285V7.96204C70.4235 7.3078 69.9592 6.83704 69.2985 6.83704H67.2915C66.6291 6.83704 66.1665 7.31227 66.1665 7.96204V28.812C66.1665 29.471 66.6282 29.937 67.2915 29.937H69.2985C69.9479 29.937 70.4235 29.4862 70.4235 28.812Z" fill="#373B43"/>
<path fill-rule="evenodd" clip-rule="evenodd" d="M98.1406 27.891C96.4466 29.563 94.3786 30.399 91.9366 30.399C89.4946 30.399 87.4321 29.5575 85.7491 27.8745C84.0661 26.1915 83.2246 24.129 83.2246 21.687C83.2246 19.245 84.0661 17.1825 85.7491 15.4995C87.4321 13.8165 89.4946 12.975 91.9366 12.975C94.3786 12.975 96.4466 13.8165 98.1406 15.4995C99.8346 17.1825 100.682 19.245 100.682 21.687C100.682 24.129 99.8346 26.197 98.1406 27.891ZM88.7356 24.954C89.5936 25.812 90.6606 26.241 91.9366 26.241C93.2126 26.241 94.2796 25.812 95.1376 24.954C95.9956 24.096 96.4246 23.007 96.4246 21.687C96.4246 20.367 95.9956 19.278 95.1376 18.42C94.2796 17.562 93.2126 17.133 91.9366 17.133C90.6606 17.133 89.5991 17.562 88.7521 18.42C87.9051 19.278 87.4816 20.367 87.4816 21.687C87.4816 23.007 87.8996 24.096 88.7356 24.954Z" fill="#373B43"/>
<path fill-rule="evenodd" clip-rule="evenodd" d="M106.817 27.99V34.812C106.817 35.4863 106.353 35.937 105.692 35.937H103.685C103.034 35.937 102.56 35.4863 102.56 34.812V14.562C102.56 13.9108 102.999 13.437 103.685 13.437H105.692C106.373 13.437 106.817 13.8998 106.817 14.562V15.384C108.071 13.778 109.853 12.975 112.163 12.975C114.385 12.975 116.282 13.8165 117.855 15.4995C119.428 17.1825 120.215 19.245 120.215 21.687C120.215 24.129 119.428 26.1915 117.855 27.8745C116.282 29.5575 114.385 30.399 112.163 30.399C109.853 30.399 108.071 29.596 106.817 27.99ZM108.104 25.053C108.962 25.911 110.051 26.34 111.371 26.34C112.691 26.34 113.785 25.9055 114.654 25.0365C115.523 24.1675 115.958 23.051 115.958 21.687C115.958 20.323 115.523 19.2065 114.654 18.3375C113.785 17.4685 112.691 17.034 111.371 17.034C110.051 17.034 108.962 17.4685 108.104 18.3375C107.246 19.2065 106.817 20.323 106.817 21.687C106.817 23.051 107.246 24.173 108.104 25.053Z" fill="#373B43"/>
<path fill-rule="evenodd" clip-rule="evenodd" d="M132.092 29.913C134.116 29.913 135.821 29.286 137.207 28.032C138.593 26.778 139.286 25.172 139.286 23.214C139.286 20.86 138.274 19.1 136.25 17.934C137.702 16.768 138.428 15.228 138.428 13.314C138.428 11.422 137.751 9.86549 136.398 8.64449C135.045 7.42349 133.379 6.81299 131.399 6.81299H123.416C122.696 6.82284 122.3 7.26189 122.291 7.93799V28.788C122.31 29.5017 122.755 29.8982 123.416 29.913H132.092ZM127.22 16.152C127.012 16.152 126.845 15.9841 126.845 15.777V11.445C126.845 11.2379 127.012 11.07 127.22 11.07H131.399C132.125 11.07 132.719 11.312 133.181 11.796C133.643 12.28 133.874 12.885 133.874 13.611C133.874 14.337 133.637 14.942 133.164 15.426C132.691 15.91 132.103 16.152 131.399 16.152H127.22ZM126.845 25.281C126.845 25.4881 127.012 25.656 127.22 25.656H132.092C132.862 25.656 133.5 25.3975 134.006 24.8805C134.512 24.3635 134.765 23.709 134.765 22.917C134.765 22.147 134.512 21.5035 134.006 20.9865C133.5 20.4695 132.862 20.211 132.092 20.211H127.22C127.012 20.211 126.845 20.3789 126.845 20.586V25.281Z" fill="#373B43"/>
<path fill-rule="evenodd" clip-rule="evenodd" d="M153.737 27.9661C152.461 29.5721 150.668 30.3751 148.358 30.3751C146.158 30.3751 144.271 29.5336 142.698 27.8506C141.125 26.1676 140.339 24.1051 140.339 21.6631C140.339 19.2211 141.125 17.1586 142.698 15.4756C144.271 13.7925 146.158 12.951 148.358 12.951C150.668 12.951 152.461 13.754 153.737 15.3601V14.5381C153.754 13.8695 154.171 13.4269 154.862 13.413H156.869C157.54 13.4258 157.981 13.8562 157.994 14.5381V28.7881C157.978 29.4528 157.542 29.8955 156.869 29.9131H154.862C154.199 29.9016 153.748 29.4584 153.737 28.7881V27.9661ZM145.883 25.0291C146.741 25.8871 147.83 26.3161 149.15 26.3161C150.47 26.3161 151.564 25.8816 152.433 25.0126C153.302 24.1436 153.737 23.0271 153.737 21.6631C153.737 20.2991 153.302 19.1826 152.433 18.3136C151.564 17.4446 150.47 17.0101 149.15 17.0101C147.83 17.0101 146.741 17.4446 145.883 18.3136C145.025 19.1826 144.596 20.2991 144.596 21.6631C144.596 23.0271 145.025 24.1491 145.883 25.0291Z" fill="#373B43"/>
<path d="M166.438 30.3751C168.33 30.3751 169.909 29.9186 171.174 29.0056C172.439 28.0926 173.071 26.7891 173.071 25.0951C173.071 23.9731 172.78 23.0381 172.197 22.2901C171.614 21.5421 170.904 21.0086 170.068 20.6896C169.232 20.3706 168.396 20.1066 167.56 19.8976C166.724 19.6886 166.015 19.4466 165.432 19.1716C164.849 18.8966 164.557 18.5391 164.557 18.0991C164.557 17.6811 164.739 17.3511 165.102 17.1091C165.465 16.8671 165.921 16.7461 166.471 16.7461C167.458 16.7461 168.219 17.106 168.754 17.8258C169.086 18.237 169.504 18.2085 170.029 17.9286C170.716 17.5538 171.26 17.2568 171.662 17.0376C172.308 16.6492 172.484 15.9855 172.028 15.4156C171.5 14.7814 170.869 14.2624 170.134 13.8585C169.034 13.2535 167.813 12.951 166.471 12.951C164.689 12.951 163.199 13.4185 162 14.3536C160.801 15.2886 160.201 16.5701 160.201 18.1981C160.201 19.2761 160.493 20.1726 161.076 20.8876C161.659 21.6026 162.368 22.1251 163.204 22.4551C164.04 22.7851 164.876 23.0601 165.712 23.2801C166.548 23.5001 167.258 23.7476 167.841 24.0226C168.424 24.2976 168.715 24.6551 168.715 25.0951C168.715 26.0411 167.956 26.5141 166.438 26.5141C165.094 26.5141 164.134 26.0519 163.558 25.1276C163.172 24.5821 162.771 24.6342 162.184 24.943C161.765 25.179 161.197 25.4982 160.482 25.9006C159.86 26.2882 159.74 26.9059 160.085 27.4649C161.404 29.405 163.522 30.3751 166.438 30.3751Z" fill="#373B43"/>
<path fill-rule="evenodd" clip-rule="evenodd" d="M188.975 27.8664C187.399 29.5388 185.276 30.3751 182.605 30.3751C179.877 30.3751 177.688 29.5501 176.038 27.9001C174.388 26.2501 173.563 24.1711 173.563 21.6631C173.563 19.1771 174.377 17.1036 176.005 15.4426C177.633 13.7815 179.723 12.951 182.275 12.951C184.695 12.951 186.692 13.787 188.265 15.4591C189.838 17.1311 190.624 19.1991 190.624 21.6631C190.624 21.9232 190.612 22.1907 190.588 22.4657C190.51 23.0467 190.144 23.3948 189.476 23.4121H178.018C178.59 25.4801 180.141 26.5141 182.671 26.5141C184.033 26.5141 185.118 26.1293 185.925 25.3599C186.245 25.0767 186.611 25.0208 187.137 25.3081L188.651 26.1815C189.321 26.5744 189.499 27.227 188.975 27.8664ZM179.437 17.6536C178.689 18.2366 178.194 19.0561 177.952 20.1121H186.367C186.125 18.9901 185.625 18.1541 184.866 17.6041C184.107 17.0541 183.243 16.7791 182.275 16.7791C181.131 16.7791 180.185 17.0706 179.437 17.6536Z" fill="#373B43"/>
<path fill-rule="evenodd" clip-rule="evenodd" d="M0 30H36C36 33.3137 33.3137 36 30 36H6C2.72574 36 0.0640482 33.3773 0.00113866 30.1181L0 30Z" fill="#8BCDF6"/>
<path fill-rule="evenodd" clip-rule="evenodd" d="M7.52324 0.000366211L28.4768 0.000366211L28.8001 0.00338324L29.1061 0.00940222L29.3956 0.0184074L29.6693 0.0303831C29.7136 0.0326257 29.7574 0.0349914 29.8005 0.03748L30.0521 0.0538819L30.2899 0.0732149C30.3669 0.080146 30.4418 0.0875631 30.5147 0.0954634L30.7273 0.120612L30.9286 0.148644C31.1244 0.178112 31.3043 0.211884 31.4719 0.249886L31.6355 0.289297C31.6621 0.296099 31.6884 0.303019 31.7144 0.310055L31.8671 0.353667L32.0136 0.400062L32.1546 0.449222L32.291 0.501132C32.3134 0.510012 32.3356 0.519006 32.3577 0.528114L32.4885 0.58412L32.6167 0.642837L32.743 0.704249L32.8681 0.768341L32.9305 0.801386C33.8618 1.29941 34.6021 2.01915 35.1222 2.9312L35.2316 3.13187L35.2957 3.25703L35.3572 3.3833L35.4159 3.51146L35.4719 3.64231C35.481 3.66438 35.49 3.6866 35.4989 3.70898L35.5508 3.84534L35.5999 3.98637L35.6463 4.13285L35.6899 4.28557C35.697 4.31159 35.7039 4.3379 35.7107 4.36453L35.7501 4.52811C35.7881 4.69568 35.8219 4.87559 35.8513 5.0714L35.8794 5.27265L35.9045 5.48529C35.9085 5.52172 35.9123 5.55866 35.916 5.59613L35.9368 5.82735L35.9547 6.07194C35.9574 6.11386 35.96 6.15638 35.9625 6.1995L35.976 6.46564L35.9865 6.74713L35.994 7.04476L35.9985 7.35934L36 7.69164V30H0L0.000377866 7.52323L0.0033949 7.19989L0.00941388 6.89388L0.0184191 6.60441L0.0303948 6.3307C0.0326374 6.28634 0.0350031 6.24262 0.0374916 6.1995L0.0538935 5.94792L0.0732266 5.71011C0.0801577 5.63305 0.0875747 5.55815 0.095475 5.48529L0.120623 5.27265L0.148655 5.0714C0.178124 4.87559 0.211895 4.69568 0.249898 4.52811L0.289308 4.36453C0.296111 4.3379 0.303031 4.31159 0.310067 4.28557L0.353679 4.13285L0.400073 3.98637L0.449234 3.84534L0.501144 3.70898C0.510024 3.6866 0.519018 3.66438 0.528125 3.64231L0.584132 3.51146L0.642849 3.3833L0.704261 3.25703L0.768353 3.13187L0.801398 3.06945C1.29942 2.13823 2.01916 1.39787 2.93122 0.877749L3.13188 0.768341L3.25705 0.704249L3.38331 0.642837L3.51147 0.58412L3.64232 0.528114C3.66439 0.519006 3.68661 0.510012 3.709 0.501132L3.84535 0.449222L3.98638 0.400062L4.13286 0.353667L4.28558 0.310055C4.3116 0.303019 4.33792 0.296099 4.36454 0.289297L4.52812 0.249886C4.69569 0.211884 4.8756 0.178112 5.07141 0.148644L5.27266 0.120612L5.4853 0.0954634C5.52173 0.0915132 5.55867 0.0876839 5.59614 0.0839757L5.82736 0.063183L6.07195 0.0453135C6.11387 0.0425798 6.15639 0.0399685 6.19951 0.03748L6.46565 0.0240249L6.74714 0.0135325L7.04478 0.00601847L7.35935 0.0014985C7.41324 0.000995551 7.46786 0.000618012 7.52324 0.000366211Z" fill="#497BDF"/>
<path fill-rule="evenodd" clip-rule="evenodd" d="M26.2815 9.60173C24.803 12.9083 22.2886 14.4866 18.0068 14.4866C13.7154 14.4866 11.1994 12.9012 9.72216 9.57952C9.5259 9.13822 9.24892 8.86682 8.70872 9.0669C8.1909 9.25869 7.46602 9.52716 6.53407 9.87233C6.03836 10.0559 5.87924 10.3936 6.09238 10.8946C8.16008 15.7545 12.0621 18.3403 18.0068 18.3403C23.9431 18.3403 27.8425 15.7618 29.9124 10.9152C30.1351 10.394 29.9124 10.0327 29.479 9.87213C28.964 9.68139 28.2414 9.41374 27.3111 9.06919C26.8686 8.9053 26.5197 9.06919 26.2815 9.60173Z" fill="white"/>
</svg>
